<svg width="25" height="25" viewBox="0 0 25 25" fill="none" xmlns="http://www.w3.org/2000/svg">
<path d="M22.4551 6.04986C18.865 0.499817 11.5352 -1.1502 5.85089 2.29983C0.316137 5.74986 -1.47892 13.2499 2.11119 18.8L2.41037 19.25L1.21366 23.75L5.7013 22.55L6.15006 22.85C8.0947 23.9 10.1889 24.5 12.2832 24.5C14.527 24.5 16.7708 23.9 18.7154 22.7C24.2502 19.1 25.8956 11.7499 22.4551 6.04986ZM19.3138 17.5999C18.7154 18.5 17.9675 19.1 16.9204 19.25C16.322 19.25 15.5741 19.55 12.5823 18.35C10.0393 17.1499 7.94511 15.1999 6.44924 12.9499C5.55171 11.8999 5.10295 10.5499 4.95336 9.19988C4.95336 7.99987 5.40212 6.94987 6.15006 6.19986C6.44924 5.89986 6.74841 5.74986 7.04759 5.74986H7.79553C8.0947 5.74986 8.39388 5.74986 8.54347 6.34986C8.84264 7.09987 9.59058 8.89988 9.59058 9.04988C9.74017 9.19988 9.74017 9.49989 9.59058 9.64989C9.74017 9.94989 9.59058 10.2499 9.44099 10.3999C9.29141 10.5499 9.14182 10.8499 8.99223 10.9999C8.69305 11.1499 8.54347 11.4499 8.69305 11.7499C9.2914 12.6499 10.0393 13.5499 10.7873 14.2999C11.6848 15.0499 12.5823 15.6499 13.6294 16.0999C13.9286 16.2499 14.2278 16.2499 14.3774 15.9499C14.527 15.6499 15.2749 14.8999 15.5741 14.5999C15.8733 14.2999 16.0229 14.2999 16.322 14.4499L18.7154 15.6499C19.0146 15.7999 19.3138 15.9499 19.4634 16.0999C19.613 16.5499 19.613 17.1499 19.3138 17.5999Z" fill="white"/>
</svg>
