<svg width="25" height="25" viewBox="0 0 25 25" fill="none" xmlns="http://www.w3.org/2000/svg">
<path fill-rule="evenodd" clip-rule="evenodd" d="M23.6665 6.44562C23.8403 5.89484 23.6665 5.49445 22.8975 5.49445H20.3403C19.6953 5.49445 19.3975 5.84503 19.2236 6.22003C19.2236 6.22003 17.9082 9.42316 16.0713 11.4998C15.4756 12.1004 15.2026 12.3006 14.8799 12.3006C14.7061 12.3006 14.4824 12.1004 14.4824 11.5501V6.41974C14.4824 5.76935 14.2842 5.46906 13.7378 5.46906H9.71631C9.31885 5.46906 9.0708 5.76935 9.0708 6.06964C9.0708 6.69513 9.98926 6.84552 10.0884 8.59698V12.4026C10.0884 13.2283 9.9419 13.3792 9.6167 13.3792C8.74805 13.3792 6.63819 10.1512 5.37256 6.47296C5.12647 5.74445 4.87647 5.46906 4.23096 5.46906H1.64941C0.904785 5.46906 0.780762 5.81915 0.780762 6.19464C0.780762 6.87042 1.64941 10.2733 4.82666 14.7772C6.93653 17.8533 9.93994 19.5067 12.6455 19.5067C14.2842 19.5067 14.4824 19.1312 14.4824 18.5057V16.1785C14.4824 15.428 14.6314 15.303 15.1528 15.303C15.5249 15.303 16.1953 15.5027 17.7095 16.9793C19.4468 18.7308 19.7446 19.5316 20.7129 19.5316H23.2695C24.0142 19.5316 24.3618 19.1561 24.1631 18.4305C23.9399 17.7049 23.0957 16.6541 22.0034 15.4031C21.4077 14.7029 20.5142 13.9271 20.2412 13.5516C19.8691 13.0511 19.9683 12.8509 20.2412 12.4007C20.2163 12.4007 23.3442 7.94659 23.6665 6.44366" fill="white"/>
</svg>
