<svg width="28" height="17" viewBox="0 0 28 17" fill="none" xmlns="http://www.w3.org/2000/svg">
<path fill-rule="evenodd" clip-rule="evenodd" d="M27.1307 1.58343C27.3174 0.959429 27.1307 0.5 26.2363 0.5H23.2833C22.5318 0.5 22.1853 0.896571 21.9974 1.33429C21.9974 1.33429 20.4956 4.98686 18.3683 7.35943C17.6798 8.04743 17.367 8.26571 16.9913 8.26571C16.8034 8.26571 16.521 8.04743 16.521 7.42229V1.58343C16.521 0.833714 16.314 0.5 15.6886 0.5H11.0447C10.5755 0.5 10.2932 0.847429 10.2932 1.17771C10.2932 1.88743 11.3574 2.052 11.4665 4.04971V8.39029C11.4665 9.34229 11.2944 9.51486 10.9187 9.51486C9.91743 9.51486 7.48186 5.84514 6.03626 1.64629C5.75615 0.829143 5.47265 0.5 4.71779 0.5H1.76248C0.918746 0.5 0.75 0.896571 0.75 1.33429C0.75 2.11371 1.75123 5.98571 5.41303 11.1069C7.85423 14.604 11.291 16.5 14.4218 16.5C16.2994 16.5 16.5312 16.0794 16.5312 15.3537V12.7103C16.5312 11.868 16.7089 11.7 17.304 11.7C17.7428 11.7 18.4931 11.9194 20.2458 13.6051C22.2483 15.604 22.5779 16.5 23.7051 16.5H26.6582C27.5019 16.5 27.9249 16.0794 27.6819 15.2474C27.4142 14.42 26.458 13.2189 25.1901 11.7937C24.5016 10.9823 23.4689 10.108 23.155 9.67029C22.7174 9.10914 22.8423 8.85886 23.155 8.35943C23.155 8.35943 26.755 3.30114 27.1296 1.58343H27.1307Z" fill="white"/>
</svg>
